<?xml version="1.0" standalone="no"?>
<!DOCTYPE svg PUBLIC "-//W3C//DTD SVG 20010904//EN"
 "http://www.w3.org/TR/2001/REC-SVG-20010904/DTD/svg10.dtd">
<svg version="1.0" xmlns="http://www.w3.org/2000/svg"
 width="300.000000pt" height="300.000000pt" viewBox="0 0 300.000000 300.000000"
 preserveAspectRatio="xMidYMid meet">

<g transform="translate(0.000000,300.000000) scale(0.100000,-0.100000)"
fill="#000000" stroke="none">
<path d="M1580 1828 c0 -3 14 -9 30 -13 40 -9 50 -31 50 -109 0 -37 4 -66 10
-66 6 0 10 5 10 12 0 9 3 9 12 0 12 -12 228 -18 228 -6 0 3 -34 46 -74 96
l-75 91 -95 1 c-53 0 -96 -2 -96 -6z"/>
<path d="M2094 1831 c-3 -3 15 -12 38 -21 52 -19 68 -47 68 -117 0 -73 16 -66
25 10 9 77 16 91 55 107 16 7 30 15 30 19 0 7 -209 9 -216 2z"/>
<path d="M680 1821 c0 -6 15 -11 32 -13 42 -4 58 -34 58 -110 l0 -58 85 0 85
0 0 63 c0 72 18 107 56 107 13 0 24 5 24 10 0 6 -63 10 -170 10 -99 0 -170 -4
-170 -9z"/>
<path d="M1160 1820 c0 -5 11 -10 23 -10 41 0 57 -29 57 -103 l0 -67 84 0 83
0 6 72 c7 78 20 98 64 98 13 0 23 5 23 10 0 6 -63 10 -170 10 -107 0 -170 -4
-170 -10z"/>
<path d="M630 1460 c0 -27 5 -50 10 -50 6 0 10 9 10 20 0 13 7 20 20 20 13 0
20 -7 20 -20 0 -11 7 -20 15 -20 11 0 15 12 15 50 0 38 -4 50 -15 50 -8 0 -15
-9 -15 -20 0 -13 -7 -20 -20 -20 -13 0 -20 7 -20 20 0 11 -4 20 -10 20 -5 0
-10 -22 -10 -50z"/>
<path d="M810 1460 c0 -27 5 -50 10 -50 6 0 10 23 10 50 0 28 -4 50 -10 50 -5
0 -10 -22 -10 -50z"/>
<path d="M930 1460 c0 -27 5 -50 10 -50 6 0 10 7 10 15 0 8 6 15 14 15 8 0 16
-7 20 -15 10 -28 22 -15 23 27 2 46 -7 58 -49 58 -27 0 -28 -2 -28 -50z m60
15 c0 -8 -9 -15 -20 -15 -11 0 -20 7 -20 15 0 8 9 15 20 15 11 0 20 -7 20 -15z"/>
<path d="M1110 1460 l0 -50 35 0 c19 0 35 5 35 10 0 6 -11 10 -25 10 -14 0
-25 5 -25 10 0 6 11 10 25 10 14 0 25 5 25 10 0 6 -11 10 -25 10 -14 0 -25 5
-25 10 0 6 11 10 25 10 14 0 25 5 25 10 0 6 -16 10 -35 10 l-35 0 0 -50z"/>
<path d="M1380 1460 c0 -27 5 -50 10 -50 6 0 10 15 10 33 l1 32 15 -27 c8 -16
17 -28 19 -28 2 0 11 12 19 28 l15 27 1 -32 c0 -18 5 -33 10 -33 6 0 10 23 10
50 0 59 -18 67 -41 18 l-15 -31 -13 31 c-21 50 -41 41 -41 -18z"/>
<path d="M1590 1460 l0 -50 35 0 c19 0 35 5 35 10 0 6 -11 10 -25 10 -14 0
-25 5 -25 10 0 6 11 10 25 10 14 0 25 5 25 10 0 6 -11 10 -25 10 -14 0 -25 5
-25 10 0 6 11 10 25 10 14 0 25 5 25 10 0 6 -16 10 -35 10 l-35 0 0 -50z"/>
<path d="M1860 1460 c0 -27 5 -50 10 -50 6 0 10 15 10 33 l1 32 27 -33 c15
-18 30 -32 35 -32 4 0 7 23 7 50 0 28 -4 50 -10 50 -5 0 -10 -14 -10 -31 l0
-31 -26 31 c-14 17 -30 31 -35 31 -5 0 -9 -22 -9 -50z"/>
<path d="M2057 1492 c-22 -25 -21 -45 3 -67 30 -27 74 -10 78 30 6 49 -48 73
-81 37z m61 -30 c4 -28 -24 -40 -45 -19 -14 13 -14 19 -3 32 18 22 44 15 48
-13z"/>
<path d="M2234 1485 c17 -69 40 -96 51 -60 16 49 18 50 28 18 5 -18 16 -33 23
-33 12 0 48 89 40 98 -10 9 -24 -9 -31 -40 l-8 -33 -10 38 c-13 45 -33 48 -42
7 -4 -16 -10 -30 -15 -30 -4 0 -10 14 -13 30 -4 17 -12 30 -18 30 -7 0 -9 -9
-5 -25z"/>
<path d="M768 1234 c-3 -121 -5 -137 -22 -150 -11 -8 -30 -14 -43 -14 -13 0
-23 -4 -23 -10 0 -6 63 -10 170 -10 107 0 170 4 170 10 0 6 -9 10 -20 10 -11
0 -29 9 -40 20 -18 18 -20 33 -20 150 l0 130 -84 0 -84 0 -4 -136z"/>
<path d="M1240 1242 c0 -141 -10 -172 -56 -172 -13 0 -24 -4 -24 -10 0 -6 63
-10 170 -10 107 0 170 4 170 10 0 6 -10 10 -23 10 -13 0 -32 6 -42 14 -17 12
-20 30 -23 150 l-4 136 -84 0 -84 0 0 -128z"/>
<path d="M1660 1258 c0 -124 -10 -155 -53 -176 -15 -7 -27 -16 -27 -20 0 -4
47 -7 105 -7 102 0 135 9 76 21 -16 4 -40 17 -52 30 -21 22 -23 37 -27 144 -3
66 -8 120 -13 120 -5 0 -9 -51 -9 -112z"/>
<path d="M1932 1353 c8 -10 65 -82 127 -160 89 -113 118 -143 137 -143 l24 0
0 160 c0 100 -4 160 -10 160 -5 0 -10 -15 -10 -32 l0 -33 -26 33 -25 32 -116
0 c-110 0 -115 -1 -101 -17z"/>
</g>
</svg>
